<svg xmlns="http://www.w3.org/2000/svg" xmlns:xlink="http://www.w3.org/1999/xlink" viewBox="0 0 643.42 322.75"><defs><style>.cls-1{fill:none;}.cls-2{clip-path:url(#clip-path);}.cls-3{fill:#231f20;}.cls-4{fill:#c00d1e;}</style><clipPath id="clip-path" transform="translate(0 0)"><rect class="cls-1" width="643.42" height="322.75"/></clipPath></defs><title>Asset 2</title><g id="Layer_2" data-name="Layer 2"><g id="Layer_1-2" data-name="Layer 1"><g class="cls-2"><path class="cls-3" d="M539.87,227.3a33.44,33.44,0,0,0,.31,4.76c13-.47,24.88-1.11,36.61-1.11,13,0,24.09.16,29,.32,5.39.16,6.34.16,7.61.16.79,0,1.27-.32,2.06-1.27a74,74,0,0,0,4.76-21.11c0-.8,0-1-.48-1.12a18.28,18.28,0,0,0-3.49-.31c-4.75,16.35-13.31,17.94-32.8,17.94-15.06,0-19.34-1-21.71-4-1.59-2.7-1.59-7.46-1.59-19.53,0-13.18,1.11-18.1,1.59-18.89a2,2,0,0,1,1.42-.95c1-.16,2.54-.32,11.25-.32s14.27,0,17.44.32c6.81.63,8.4,1.9,9.35,6.35a28.72,28.72,0,0,0,1.74,6c.16.63.48,1.11.95,1a17.59,17.59,0,0,0,3.65-.48c-.32-4.44-.95-9.2-1.11-14.44,0-4.76,1-11.59,1.27-16.35-.32,0-4,.15-4.76.63-1.74,9.53-2.22,9.68-12.2,10.48-4,.32-9.83.48-17.12.48H562.85a2.28,2.28,0,0,1-2.22-2.23c0-1.52,0-3,0-4.57-4.05,1.51-7.8,2.76-11.23,3.82V193c0,16.67-.79,26.67-1.11,29.21-.15,2.07-.63,3.34-7.76,4.45a1.21,1.21,0,0,0-.63.63m71.79-75.72c0-2.36.05-6.56.3-10.92a62.69,62.69,0,0,1-5.61,4.63c.25,1.49.47,3.11.71,4.86.16.95.79,1.27,4.6,1.43m-73.54-23.66-.32,3.81c0,.32,0,.32.16.48,3.33.95,6.66,1.43,8.24,2.06,1.59.32,1.91,1.11,2.06,1.91a135.48,135.48,0,0,1,.87,13.92q6-2.19,11.21-4.57c0-2,0-3.92,0-5.86,0-4.13.47-5.24,2.22-5.88,1.58-.63,7.13-.95,16.48-.95h4.6L585,132a38.08,38.08,0,0,0,5.8-4.62c-3.76.14-7.45.25-10.64.25h-16c-8.87,0-14.58-.31-19.65-.31h-5.7c-.64,0-.64.15-.64.63m-57.21,98.59a9.78,9.78,0,0,0,.64,3.81,2,2,0,0,0,1.9,1.27c.47,0,8.56-.48,13.79-.48,5.7-.16,12.2,0,25.51.32a15.52,15.52,0,0,0,1.27-4.29c0-.47-.63-.63-1.9-.95-1-.16-6.66-.63-8.4-.95-2.54-.64-4-1.27-4.12-5.4-.32-5.24-.64-12.07-.64-20.64V181.59q-5.62.74-11.41,1.24v13.51c0,16.83-.63,22.39-.79,24.93-.48,4.29-4,5.08-15.85,5.24m45.64-94.78-.95-3.65c-.15-.48-.31-.64-2.37-.64-1.59,0-12.68.16-21.08.32-6.5,0-12.36-.16-13.95-.16a27.9,27.9,0,0,0-4,.16c-.48.16-.63.48-1.27,1.75a5.18,5.18,0,0,0-.79,2.22,1,1,0,0,0,.95,1,43.2,43.2,0,0,1,9,.64c5.23,1,5.39,2.54,5.39,23.18v4.63q5.91-.49,11.43-1.24c.08-15.06.52-20.21,1.09-22.92.48-3,2.06-4,16.48-5.24M379.17,226.67c-.16,1,.15,3.81.79,4.44.16.16.63.16,2.53.16,1,0,4-.48,9.67-.48,6,0,18.07.16,19.81.16,1.59,0,2.06,0,2.22-.31.16-.64.95-3,1.11-3.81-3.49-.8-10.46-1.91-12.2-3.34a6.4,6.4,0,0,1-1.59-4.28c-.31-10.16-.47-19.85-.47-31.28a2.69,2.69,0,0,1,2.22-2.38c.95-.32,2.85-.48,8.08-.48,10.62,0,12,.8,16,8.73,5.7,10.64,10.77,19.69,17.59,26,8.71,7.94,18.38,13,32.33,14.61.31,0,.79-1.91.79-3.18,0-.48-.16-.79-1.59-1.59-14.73-7.3-22-14.76-29.47-26.19a86,86,0,0,1-10.62-21.13c-5.9-.64-11.87-1.61-17.87-2.83a90.35,90.35,0,0,1-11.77.62,24.48,24.48,0,0,1-4.59-.47c-.29-.39-.64-.79-.87-4.33q-5.53-1.54-11-3.31v15.57c0,18.74-.48,32.39-2.06,35.09-1.11,2.38-5.86,3.33-9,4M363.26,132.3c.95-.09,2-.17,3.07-.25.16-.64.32-4.29-.79-4.76-4.47,0-8.34.21-13.17.36,3.18,1.39,6.86,3,10.89,4.65m-31.95,96.43-.32,3.18c7.45-.64,18.38-1,23.45-1h9.83c.32,0,.63-.47.63-1.27,0-1.27-.31-3.81-.79-4-10-1.58-10.77-1.58-11.25-12.7-.16-6.51-.16-16.82-.16-36.35-.05-7.35-.11-13.51-.15-18.63-3.47-1.52-6.87-3.07-10.19-4.61-.93,54.91-1.11,61.46-1.7,65.63-.8,5.24-1.27,5.87-8.24,7.78-.8.15-1,.15-1.11,1.9m-97.79-2.22a10.49,10.49,0,0,0,.32,4.28,2.27,2.27,0,0,0,1.74.48c10.78-.16,20.45,0,30,.48l-.32-3.5c-.16-1.58-.32-1.9-2.85-2.22-4.76-.63-7.14-1.59-7.61-4-.64-2.85-1.11-9.05-1.11-26.67.16-18.41,0-42.07.16-53.5,5.86,11.43,20,40.33,35.82,73.82,1.9,4.45,5.54,12.23,6.33,13.66.64,1.11,1.43,1.58,1.91,1.58.95,0,1.42-1.27,3.48-5.08.64-1.74,3.49-8.25,11.57-24.6,6.28-13,17.57-36.81,24.09-50.39l-5-2.44c-9.52,19.09-21.19,41.88-30.18,58.54-.16.64-1.11.64-1.27.48-9.67-15.4-31.54-56.36-39-73.82a21.67,21.67,0,0,1-.95-5.88h-7.29c-4.28,0-11.88-.47-16-.47-1.11,0-1.91.15-2.22.63a18.11,18.11,0,0,0-1.27,4.6c13.95.64,14.58,1.91,14.42,7l-.95,29.21c-.63,20.32-1.43,38.42-2.54,48.26-.79,7-3.48,8.42-11.25,9.53M19.26,142.68C8.48,154.59,5.63,169.2,5.63,180.31c0,25.08,17.11,53.5,58.79,53.5,7.77,0,20.76-2.54,25.84-2.7.95,0,1.74-.47,2.69-1.9a94.09,94.09,0,0,0,7.77-18.89c.15-1-1-2.39-2.22-3.34-.48-.48-1,0-1.11.64a30.54,30.54,0,0,1-7.93,11.74C84.55,224,78.53,228.1,66.8,228.1c-37.4,0-46.91-29.85-46.91-46.84S25.28,152.53,31,145.7c8.88-10.48,20.13-15.08,31.86-15.08,11.57,0,19.65,3.49,22.19,5.24,3,1.9,3.8,3.33,4.91,6.19,1,3.33,2.06,7.46,2.69,10.32.32.95.64.95,2.54.32.79-.16,2.53-.48,2.53-.8-.79-8.09-.47-17.3,2.7-23.33.16-.32-.16-.48-2.06-1.12a1.92,1.92,0,0,0-1.27-.15c-4.12,1.58-4.6,1.9-6.66,1.27-4-1.75-12.83-3.66-20-3.66a109.2,109.2,0,0,0-23.62,3c-8.71,2.38-19.49,5.87-27.57,14.76M62.76,31c0,6.67-3,12.86-7,17.47C50.24,55,42.47,56.58,28.53,56.58a23.77,23.77,0,0,1-4.6-.47c-.47-.64-1.11-1.27-1.11-15.72,0-14.61.32-23,1.11-27.94a3.8,3.8,0,0,1,2.22-2.7c2.06-1.11,5.55-1.9,11.57-1.9,15.53,0,25,11.27,25,23.17m13-.16c0-7.93-3.49-15.55-11.26-20.95C56.74,4.19,46.75,2.76,37.56,2.76c-3.49,0-8.08.16-14.58.64C16.32,4,9,4,.48,4.19A1.73,1.73,0,0,0,0,5.3L.48,8.64c10.3,2.38,10.93,3.49,11.09,7.94.16,8.57.48,19.84.48,28.89V64c0,18.74-.48,32.39-2.07,35.09-1.1,2.38-5.86,3.33-9,4-.16,1,.16,3.81.79,4.44.16.16.64.16,2.54.16,1,0,4-.47,9.67-.47,6,0,18.06.16,19.81.16,1.58,0,2.06,0,2.22-.32.15-.64,1-3,1.11-3.81-3.49-.8-10.46-1.91-12.21-3.34a6.46,6.46,0,0,1-1.58-4.28c-.32-10.16-.48-19.85-.48-31.28A2.69,2.69,0,0,1,25,62c.95-.32,2.85-.48,8.08-.48,10.62,0,12.05.8,16,8.74,4.72,8.79,9,16.49,14.19,22.49,3.56-2.19,7-4.16,10.34-5.94-1.67-2.14-3.27-4.41-4.88-6.87C61.49,69.13,58.16,59.6,57.53,56.42c-.16-1.11.16-1.58,1.27-2.22,6-3.49,17-11.27,17-23.34m22.5,75.26c-2.13-1.06-4.09-2.12-5.94-3.2-2.89,1.47-5.58,3-8.09,4.43a59.31,59.31,0,0,0,14.82,3.53c.32,0,.79-1.91.79-3.18,0-.47-.15-.79-1.58-1.58m37.09-97.8c.31-.16.47-3.65.47-4.29,0-.47-.16-.47-.79-.47-7.29,0-13,.63-20,.63-3.49,0-11.09-.63-14.58-.63-2.22,0-2.69.16-2.69.95l-.32,3.81c8.24.64,10.78,1.59,11.09,4.76.48,2.7.48,8.26-.16,24.77-.47,12.7-.47,23-.31,30.8,0,1.33.07,2.66.15,4,1-.29,2-.57,2.87-.82,2.76-.77,5.56-1.47,8.39-2.12-.1-1.41-.16-2.85-.16-4.37,0-10.31.48-25.55.63-34.45.16-11.11.8-14.6,1.43-16.66,1.27-3.66,2.85-4.77,13.95-5.88m18.86,93.35c-9.67,0-18.23-2.54-24.09-7.62a21.82,21.82,0,0,1-3.37-3.36c-4.33,1-8.41,2.07-12.24,3.26a31.59,31.59,0,0,0,3.72,4.7c5.23,5.56,16.8,11.59,30.59,11.59s29-6.66,36.61-17.78a51.91,51.91,0,0,0,3.1-5.33c-2.36-.18-4.67-.33-6.95-.45a31.7,31.7,0,0,1-3,4.83c-3.64,4.92-9.67,10.16-24.4,10.16m52.14-97c.31-.48.31-.95-.48-.95-4.12.31-11.41.47-16,.47-4,0-12.36-.16-13.62-.16-3.17,0-3.65.16-4,.64a32.1,32.1,0,0,0-1.9,3,1.72,1.72,0,0,0,1.27,1.74c11.57,0,14.42.16,14.9,5.4.63,6.83.47,22.23.47,39.21,0,3.62-.1,7-.3,10.1,2.35.1,4.72.22,7.11.38.24-3.48.37-7.29.48-11.59.64-27.78,1.11-36.35,2.38-40.64a3.84,3.84,0,0,1,1.74-2.22c1.9-.32,5.23-.8,6.5-1.11Zm2.29,179.13c0,30.33-18.22,44-35.82,44-10.93,0-21.23-4.13-32.33-14.92-9-8.9-14.26-21.91-14.26-36.36,0-8.57,2.38-24.13,11.25-34.13,8.72-9.37,17-11.91,24.41-11.91,14.1,0,24.56,5.87,31.38,13.18,11.25,12.06,15.37,26,15.37,40.16M222.11,177c0-29.06-26.15-52.08-54.83-52.08A56.73,56.73,0,0,0,130,139.19C117.2,150.62,112,164.75,112,178.09c0,13,5.23,27.3,13.31,36.19,10.62,11.75,28.84,19.53,45.33,19.53a49.25,49.25,0,0,0,33.75-14.45c7.93-8.25,17.75-22.7,17.75-42.38m6.71-80.9c-4-1.38-8.11-2.66-12.21-3.79.46,3.91.83,8,1,12.08a15.71,15.71,0,0,0,1.11,5.56c.63.95,1.11,1.11,1.43,1.11.47,0,1-.16,1.9-1a27.51,27.51,0,0,1,3.17-2.06,4.12,4.12,0,0,1,2.85-.32c7,1.11,13.47,2.38,20.92,2.38a73.49,73.49,0,0,0,11.15-1.2c-2.85-1.34-5.82-2.7-8.89-4a34.67,34.67,0,0,1-22.42-8.76m6.05-58.39a17.84,17.84,0,0,1-4.27-11.75c0-11.11,8.24-19,21.23-19,8.72,0,16.8,2.7,20,6,4.28,3.65,5.39,9.2,7,14.44.16.64.16.8.64.64a10,10,0,0,0,3.64-1.43,1.6,1.6,0,0,0,.48-1.75A114,114,0,0,1,282.26.22a11.21,11.21,0,0,0-3.49-.15c-1.42,1.74-3,3.17-4,3.17a18.77,18.77,0,0,1-4.12-.48A106.92,106.92,0,0,0,255,1.34a53.39,53.39,0,0,0-23,5.39c-7.76,4.29-13.15,11.28-13.15,23,0,4.92,2.69,12.07,5.86,15.56,4.76,5.56,12.68,9,23.62,13.18,13.62,4.92,17.9,7,21.39,9.84a16.41,16.41,0,0,1,6.82,13.34,24.92,24.92,0,0,1-.52,5.1q5.32,2.33,10.28,4.66a30.27,30.27,0,0,0,2.12-11.35c0-7.3-1.9-13.5-8.24-19-4.75-4.13-12.2-7.94-23.61-11.91-12.84-4.44-17.75-7.14-21.72-11.43m85.47-3.49a16,16,0,0,1-3.89-10.53c0-9.53,7.06-16.6,18-16.6,7.35,0,14.55,2.45,17.58,5.34,4,3.46,5.33,8.37,6.91,13.42.15.72.29.87.72.72A7.91,7.91,0,0,0,363,25.11c.57-.29.72-.87.57-1.73A98.8,98.8,0,0,1,362.27.72a11.5,11.5,0,0,0-3.46-.15c-1.3,1.73-2.59,2.89-3.6,2.89a16.58,16.58,0,0,1-4-.43,114.16,114.16,0,0,0-13.83-1.16c-9.36,0-17.72,2.89-21.18,4.76-6.91,3.9-12.1,10.25-12.1,20.79,0,5,2.45,11.25,5.33,14.43,4.61,5.48,11.67,8.8,21.61,12.56,11.38,4.33,15.13,6.35,18,8.66a14.6,14.6,0,0,1,6.49,12.12c0,11.83-8.94,20.2-21.76,20.2-9.51,0-19.16-5.62-23.77-12.41a25.74,25.74,0,0,1-4.18-9.23c-.43-1.45-.87-1.74-1.44-1.74a20.19,20.19,0,0,0-3.17.44c-.72.14-.87.43-.58,1.44a170.71,170.71,0,0,1,2.45,21.36,16.28,16.28,0,0,0,.87,5.2c.72.72,1.15.86,1.58.86a2.63,2.63,0,0,0,1.87-.86,22.57,22.57,0,0,1,2.89-1.88,3.71,3.71,0,0,1,2.59-.29,98.68,98.68,0,0,0,18.58,2.17c4.9,0,17.44-1.59,23.92-5.2C362.7,91.21,368,83.42,368,73c0-6.92-1.87-12.41-7.64-17.6-4.46-4-11.23-7.51-21.61-11.26-10.8-3.9-14.84-6.35-18.44-10M401.2,127c-6.66.63-13.95.63-22.51.79a1.71,1.71,0,0,0-.47,1.11l.47,3.34c10.3,2.38,10.94,3.49,11.09,7.93,0,1.58.07,3.25.11,5,3.7,1.46,7.48,2.88,11.31,4.24a106.52,106.52,0,0,1,.95-13.33,3.76,3.76,0,0,1,2.22-2.7c2.06-1.11,5.54-1.91,11.56-1.91,15.54,0,25,11.27,25,23.18a22.79,22.79,0,0,1-.58,5.1c3.42.53,6.8,1,10.14,1.25l2.27.17a19.85,19.85,0,0,0,1.17-6.68c0-7.93-3.49-15.56-11.25-21-7.77-5.72-17.75-7.15-26.94-7.15-3.49,0-8.09.16-14.58.64m55.86-20a74,74,0,0,0,4.76-21.11c0-.8,0-1-.48-1.12a18.25,18.25,0,0,0-3.48-.31c-4.76,16.35-13.32,17.94-32.81,17.94-15.06,0-19.34-1-21.71-4-1.59-2.7-1.59-7.46-1.59-19.53,0-13.18,1.11-18.1,1.59-18.89a2,2,0,0,1,1.42-1c.95-.16,2.54-.32,11.26-.32,8.55,0,14.26,0,17.43.32,6.81.63,7.91,1.27,9.61,5.91.22,1,.81,2.19,1.28,3.8.15.64.47,1.11,1,1a17.32,17.32,0,0,0,3.64-.47c-.31-4.45-.74-6.54-.9-11.78,0-4.76,1-11.59,1.27-16.35-.32,0-4,.15-4.76.63-1.74,9.53-2.22,9.69-12.2,10.48-4,.32-9.83.48-17.12.48H404.45a2.28,2.28,0,0,1-2.22-2.23c0-11.43-.32-22.86-.32-34,0-4.13.48-5.24,2.22-5.88,1.58-.63,7.13-1,16.48-1H433c13.63,0,14.11,6,15.69,17.31.16.95.8,1.27,4.6,1.43,0-4.13.16-14,1.27-20.33.63-2.85,1-2.54-.79-3.65a6.86,6.86,0,0,0-3.81-.79c-7.45,0-19.65.79-28.21.79h-16c-8.87,0-14.58-.31-19.65-.31h-5.7c-.64,0-.64.15-.64.63l-.31,3.81c0,.32,0,.32.16.48,3.32.95,6.65,1.43,8.24,2.06,1.58.32,1.9,1.11,2.06,1.91C390,14,391,21.92,391,45.09V69.86c0,16.67-.8,26.67-1.11,29.21-.16,2.07-.64,3.34-7.77,4.45a1.21,1.21,0,0,0-.63.63,35,35,0,0,0,.31,4.76c13-.47,24.89-1.11,36.61-1.11,13,0,24.09.16,29,.32,5.38.16,6.34.16,7.6.16.8,0,1.27-.32,2.06-1.27m96.36-21c.16-.63.32-1-.32-1.58a15.42,15.42,0,0,0-4.43-1.27c-.32,0-.48.16-.64.63a33.51,33.51,0,0,1-4.12,10.8c-5.55,8.09-15.69,8.09-26.15,8.09-7,0-12.84-.31-15.53-1.27q-2.61-.7-2.85-3.81c-.16-2.85-.32-7.62-.48-33.49l-.16-18.9c-.16-11.9.32-23.65.8-28.41.63-6.67,3.48-7.47,14.1-8.58,0-1.58-.47-4.12-.95-4.6-8.56.48-16.48.79-24.09,1-4.75.16-9.19.16-13.63.16-.32,0-.63,0-.79.79l-1.27,2.7c-.32,1,.16,1.91.79,1.91,11.26-.16,12.52.47,13,4.28.32,3,.63,11.59.63,25.25V72.4c0,16.51-.47,22.7-1.11,24.93-1.42,4.76-5.23,6-13.31,6.82a19.86,19.86,0,0,0,1.43,4.92,19,19,0,0,0,3.33-.31c1.9-.16,9.66-1,17.75-1,26.3,0,34.23.48,40.88.48s8.24,0,9.83-.16a2.81,2.81,0,0,0,2.69-2.22c1.11-7,3-13.81,4.6-19.85M643,84.47a15.39,15.39,0,0,0-4.44-1.27c-.31,0-.47.16-.63.63a33.51,33.51,0,0,1-4.12,10.8c-5.55,8.09-15.69,8.09-26.15,8.09-7,0-12.84-.31-15.53-1.27q-2.62-.7-2.86-3.81c-.15-2.85-.31-7.62-.47-33.49l-.16-18.9c-.16-11.9.32-23.65.79-28.41.64-6.67,3.49-7.47,14.11-8.58,0-1.58-.48-4.12-1-4.6-8.56.48-16.48.79-24.09,1-4.76.16-9.19.16-13.63.16-.32,0-.64,0-.79.79l-1.27,2.7c-.32,1,.16,1.91.79,1.91,11.25-.16,12.52.47,13,4.28.31,3,.63,11.59.63,25.25V72.4c0,16.51-.48,22.7-1.11,24.93-1.43,4.76-5.23,6-13.31,6.82a20.3,20.3,0,0,0,1.42,4.92,18.9,18.9,0,0,0,3.33-.31c1.9-.16,9.67-1,17.75-1,26.31,0,34.24.48,40.89.48s8.24,0,9.83-.16a2.82,2.82,0,0,0,2.69-2.22,202.85,202.85,0,0,1,4.6-19.85c.16-.63.31-1-.32-1.58" transform="translate(0 0)"/><path class="cls-4" d="M532.78,313.66l-26.06-30.07h-4.48V322.3h5.2V292.49l25.84,29.81H538V283.59h-5.26Zm-84.12-7.76,5.78-14,6.24,14ZM436,322.3h5.69l4.83-11.47H463l5.15,11.47h5.67l-17.33-38.93h-3.89Zm-33.92,0h5.53V283.59H402Zm-44.66-4.65a15.4,15.4,0,0,1-11-4.1,14.85,14.85,0,0,1,.07-21,15.32,15.32,0,0,1,11-4.2,26.57,26.57,0,0,1,13.25,3.88v-6a34.82,34.82,0,0,0-13.53-3.18,20.64,20.64,0,0,0-14.84,5.76,18.9,18.9,0,0,0-6,14.21,19.56,19.56,0,0,0,2.63,9.9,19.12,19.12,0,0,0,7.14,7.17,21.55,21.55,0,0,0,11,2.61,28.81,28.81,0,0,0,14-3.33v-6.09a25,25,0,0,1-13.72,4.32M299.6,322.3h5.53V283.59H299.6Zm-45.18-14.13h7.44v8.07l-.52.16a26,26,0,0,1-7.94,1.53,15.45,15.45,0,0,1-11.18-4.19,15.35,15.35,0,0,1,0-21.39A14.57,14.57,0,0,1,252.9,288a27.13,27.13,0,0,1,13.72,4v-5.66a51.58,51.58,0,0,0-7.41-2.59,26.53,26.53,0,0,0-6.2-.7,20.56,20.56,0,0,0-14.91,5.76,19.25,19.25,0,0,0-5.95,14.44,18.62,18.62,0,0,0,5.74,13.84q5.75,5.61,15.34,5.61a35.26,35.26,0,0,0,14.16-3.11v-16.4h-13Zm-72-2.27,5.78-14,6.24,14Zm-12.71,16.4h5.69l4.82-11.47h16.49l5.15,11.47h5.66l-17.32-38.93h-3.89ZM123.6,299.49l-12.84-15.9h-5.24V322.3h5.53V292.18l12,15h1l11.88-15V322.3h5.56V283.59h-5.17Z" transform="translate(0 0)"/><path class="cls-4" d="M287.27,123.83c-5,1.62-11.47,3.73-18.89,6.07a7.6,7.6,0,0,0,.17.9c.69,1.61,1.51,3.43,2.43,5.42,8.74-2.66,17-5.26,24.32-7.59-2.64-1.58-5.3-3.18-8-4.8M235,140c-5.27,1.51-10.56,3-15.73,4.35a62.53,62.53,0,0,1,3.43,5.51c5.83-1.46,11.91-3.08,18.05-4.78l.15-4.6c-1.22-.16-3.08-.33-5.9-.48M136.23,160.7a52.28,52.28,0,0,0-1.45,5.83c19.88-2.26,40.64-6.08,59.32-10.09a50.35,50.35,0,0,0-3.72-5.18c-16.81,3.7-35.88,7.32-54.15,9.44M57.41,138.57a31.77,31.77,0,0,0-12.77,4.87c2.67,8.44,9.52,15.91,21.62,20.33,10.19,3.76,23.88,5.09,39.27,4.82a56,56,0,0,1,1.32-6c-11.79,0-22.27-1.22-30.25-4.17-11.51-4.21-17.5-11.63-19.19-19.84M382.56,95.83c.06-.7.12-1.54.18-2.5-21.84,6.21-43.56,13-59.81,18.2l9.59,5.6c9.21-3,24.3-7.93,41.37-13.13a8.32,8.32,0,0,1,6.91-7.86h0c.7-.11,1.28-.21,1.76-.31m97.17-18.1c0-1.64,0-3.41,0-5.36V70.94c-20.77,3.63-41,8-58.13,12.15-4.07,1-8.29,2-12.59,3.11a65.43,65.43,0,0,0,.35,7.5c8.18-2.24,16.23-4.32,23.76-6.1,5.37-1.28,11.08-2.6,17-3.91h0c4.22-.94,10.71-2.35,17-3.57h0l3.07-.59,1.85-.34c.57-.1,1.06-.21,1.5-.32,2-.39,4.1-.77,6.16-1.14m89.87-6.24V63.83c-18.49-1.48-40.69,0-63.42,3,0,2.42,0,4.63,0,6.66,23.15-3.11,45.73-4.45,63.38-2M589,138.29c-24.77,16.14-66,36.21-139.1,30.14-21.89-1.87-45.43-9.07-66.25-17.3-21.25-8.59-38.26-18.5-66.47-34.27C283,97.75,249.55,80.3,210.22,74.05c-4-.7-8-1.26-12-1.6-.85-.07-1.64-.09-2.48-.15-.28,0-.56-.07-.85-.09-2.42-.19-4.47-.3-6.25-.36-65.6-3.49-102.82,15-126,30.11A44.24,44.24,0,0,0,46.6,120.43a119.65,119.65,0,0,1,14.71-2.34,38.55,38.55,0,0,1,12.24-12.8C94.38,91.72,129,74.85,190.48,79.91h0c46.95,4.42,85.71,28.75,105.73,40S360,157.2,406.44,169.09c7.3,1.87,13.22,3.16,17.88,4a156.9,156.9,0,0,0,16.41,2.34c83.54,6.93,130.59-16,158.88-34.43a50.76,50.76,0,0,0,20.33-25.38l-1.86,0c-2.85-.07-6.39-.15-11.07-.21a44.35,44.35,0,0,1-18,22.94m32.19-44c-2.66-10.38-10.58-19.69-25.11-25.17,0,4.65.06,8.49.09,11.67a29.77,29.77,0,0,1,11.05,14.45h.26c5.72,0,10.26-.1,13.71-1" transform="translate(0 0)"/></g></g></g></svg>