<svg xmlns="http://www.w3.org/2000/svg" xmlns:xlink="http://www.w3.org/1999/xlink" viewBox="0 0 603.99 118.15"><defs><style>.cls-1{fill:none;}.cls-2{clip-path:url(#clip-path);}.cls-3{fill:#231f20;}</style><clipPath id="clip-path" transform="translate(0 0)"><rect class="cls-1" width="603.99" height="118.15"/></clipPath></defs><title>Asset 1</title><g id="Layer_2" data-name="Layer 2"><g id="Layer_1-2" data-name="Layer 1"><g class="cls-2"><path class="cls-3" d="M576.1,5.91C535.66-9,450.1,7.46,394.69,20.66c-33.51,7.91-75.5,20.82-102.81,29.58l10,5.84C322.31,49.34,370.25,34,406.7,25.36c48.52-11.56,123.43-26,158.84-12.92,30.88,11.28,29.72,41.16,11.76,59.23-13.88,14.7-36.61,23.52-55.87,29.13-24.37,7.59-55.89,12.2-97.27,8.77-42-3.58-89.56-26.44-114.63-40-25.75-13.72-34.67-20.6-52.82-29.95C230.94,27,195,12.35,162.33,9.57a297.62,297.62,0,0,0-50.94-.11c-1.69-.07-5.65.33-13.15,1.52l-2.77.47c-5.3.84-10.38,1.81-15.17,2.94C48.16,21.54,26.14,32.68,13.9,45.11v.1c-18.91,17.5-21.17,48.14,10,59.5,34.68,12.79,108.05-1.33,155.58-12.66C205.13,86,237,76.3,260.31,68.92l-1-.31L251.62,64c-19.19,6.24-55.26,17.6-83.27,24.21C127.51,98,64.45,110.12,34.64,99.13,8.47,89.58,9.64,64.16,25,49,37.33,36.2,57.45,28.76,74.14,24c20.18-6,46-9.44,79.52-6.66C204.51,21.7,265,59.6,265,59.6h0c7.16,4.25,14.1,8.46,23.22,13.38l0,0,3.52,1.87.94.49c1.35.71,2.73,1.43,4.18,2.16l.78.42c30.11,15.43,75.7,35.38,116.93,38.89a342.38,342.38,0,0,0,60.19,0,121.48,121.48,0,0,0,13.95-1.67c7.87-1.14,15.25-2.57,22.19-4.23,37-8.38,62.13-21.41,76.84-35.66h0C610,54.84,612.36,19.14,576.1,5.91" transform="translate(0 0)"/></g></g></g></svg>