<svg xmlns="http://www.w3.org/2000/svg" xmlns:xlink="http://www.w3.org/1999/xlink" viewBox="0 0 522.91 470.27"><defs><style>.cls-1{fill:none;}.cls-2{clip-path:url(#clip-path);}.cls-3{fill:#231f20;}</style><clipPath id="clip-path" transform="translate(0 0)"><rect class="cls-1" width="522.91" height="470.27"/></clipPath></defs><title>Asset 3</title><g id="Layer_2" data-name="Layer 2"><g id="Layer_1-2" data-name="Layer 1"><g class="cls-2"><path class="cls-3" d="M270.09,60.09c-7.31,8.55-17.53,10.64-35.89,10.64a31.06,31.06,0,0,1-6-.63c-.63-.83-1.46-1.67-1.46-20.65,0-19.2.42-30.26,1.46-36.72.63-1.67,1-2.72,2.92-3.55,2.71-1.46,7.3-2.5,15.23-2.5,20.45,0,33,14.81,33,30.46,0,8.76-4,16.9-9.18,23m58,77.82c0-.62-.21-1-2.09-2.08-19.4-9.6-29-19.41-38.81-34.43-9.59-14.19-14-26.71-14.81-30.88-.21-1.46.21-2.09,1.67-2.92C282,63,296.38,52.79,296.38,36.93c0-10.43-4.6-20.45-14.82-27.54C271.34,1.88,258.19,0,246.09,0c-4.59,0-10.64.21-19.19.83-8.77.84-18.36.84-29.63,1a2.23,2.23,0,0,0-.63,1.46l.63,4.38c13.56,3.13,14.4,4.59,14.61,10.43.2,11.27.62,26.08.62,38V80.54c0,24.61-.62,42.56-2.71,46.1-1.46,3.13-7.72,4.39-11.89,5.22-.21,1.25.21,5,1,5.84.21.21.83.21,3.34.21,1.25,0,5.21-.62,12.72-.62,7.93,0,23.79.2,26.09.2,2.08,0,2.71,0,2.92-.41.2-.84,1.25-4,1.46-5-4.59-1-13.77-2.5-16.07-4.38-.83-.84-1.88-2.51-2.09-5.64-.41-13.35-.62-26.08-.62-41.1,0-1.67,1.46-2.71,2.92-3.13,1.25-.41,3.76-.62,10.64-.62,14,0,15.86,1,21.07,11.47,7.51,14,14.19,25.87,23.16,34.22,11.48,10.43,24.2,17.11,42.57,19.19.41,0,1-2.5,1-4.17" transform="translate(0 0)"/><path class="cls-3" d="M184.65,400c0,33,22.53,70.31,77.4,70.31,10.23,0,27.33-3.34,34-3.55,1.25,0,2.3-.62,3.55-2.5,2.5-4,7.93-16.27,10.22-24.83.21-1.25-1.25-3.13-2.92-4.38-.63-.63-1.25,0-1.46.83A40.17,40.17,0,0,1,295,451.28c-6.47,6.05-14.4,11.48-29.84,11.48-49.24,0-61.76-39.23-61.76-61.55s7.1-37.76,14.61-46.74c11.68-13.77,26.5-19.82,41.94-19.82,15.23,0,25.87,4.59,29.21,6.89,4,2.5,5,4.38,6.46,8.14,1.26,4.38,2.72,9.8,3.55,13.56.42,1.25.84,1.25,3.34.41,1-.2,3.34-.62,3.34-1-1.05-10.64-.63-22.74,3.54-30.67.21-.42-.2-.62-2.71-1.46a2.46,2.46,0,0,0-1.67-.21c-5.42,2.09-6,2.51-8.76,1.67-5.22-2.29-16.9-4.8-26.29-4.8a144,144,0,0,0-31.09,4c-11.47,3.13-25.66,7.72-36.3,19.4-14.19,15.65-17.94,34.84-17.94,49.45" transform="translate(0 0)"/><path class="cls-3" d="M499.06,183.2c-34.59-12.75-107.77,1.33-155.16,12.62-27.07,6.39-60.6,16.59-83.93,24,4,2.26,8.23,4.63,12.4,7,20.47-6.54,51-15.9,75.55-21.69,41.49-9.89,105.56-22.21,135.85-11,21.62,7.9,24.85,26.45,16.89,41.4-3.09,5.35-7.82,10-16.78,15.21-22.75,12.91-57.95,25.85-114.78,21.15-29.28-2.5-61.69-15.94-84.29-27.12h0l-.09-.05c-1.06-.52-2.1-1-3.12-1.56-24.62-12.38-34.06-20.19-55.36-31-22.07-10.81-53-23.46-81.08-25.84-57.54-4.77-92.42,8.93-114.61,22-.36.18-.7.36-1,.56-1.58.93-3.18,2-4.78,3l-1.2.75c-.25.17-.47.37-.72.54-6.14,4.21-12,9.2-16,14.71L6.7,228c-.69,1-1.32,1.91-1.9,2.89-.36.6-.71,1.22-1,1.84-.08.15-.18.3-.25.45a.36.36,0,0,1,0,.07c-7.29,14.51-3.86,32.2,17,39.8,29.67,10.93,92.43-1.14,133.08-10.83,21.56-5.08,48.25-13.16,68.05-19.43l-11.07-6.31c-17.1,5.42-40.88,12.61-60.2,17.17C115.38,262,61.44,272.33,36,262.93c-17.08-6.23-20.5-20.34-15.33-32.46,2.79-6.2,10-12.27,20.24-17.54.82-.41,1.62-.83,2.48-1.24l.35-.16c19.12-9.07,46.76-16.61,87.79-13.21,36.79,3.13,79.49,26.81,91.78,34h0c10.78,6.22,17.83,10.87,33.43,18.77l.26.14,4.58,2.28c25.51,12.57,60.92,27.09,93.2,29.84,74.57,6.18,116.56-14.25,141.81-30.67.42-.28.79-.59,1.19-.88.2-.13.42-.24.61-.37A74,74,0,0,0,510,241.63c18.11-17.59,19.62-47.29-10.89-58.43" transform="translate(0 0)"/></g></g></g></svg>